<svg xmlns="http://www.w3.org/2000/svg" width="375" viewBox="0 0 375 375" height="375" version="1.0"><defs><clipPath id="a"><path d="M 37.5 186 L 146 186 L 146 294.734375 L 37.5 294.734375 Z M 37.5 186"/></clipPath><clipPath id="b"><path d="M 54 157 L 187.5 157 L 187.5 277 L 54 277 Z M 54 157"/></clipPath></defs><path fill="#154854" d="M 141.632812 240.417969 C 141.632812 242.066406 141.550781 243.710938 141.390625 245.347656 C 141.226562 246.988281 140.988281 248.613281 140.664062 250.230469 C 140.34375 251.84375 139.945312 253.441406 139.464844 255.015625 C 138.988281 256.589844 138.433594 258.140625 137.804688 259.660156 C 137.175781 261.183594 136.46875 262.667969 135.695312 264.121094 C 134.917969 265.574219 134.074219 266.984375 133.15625 268.355469 C 132.242188 269.722656 131.261719 271.042969 130.21875 272.316406 C 129.171875 273.589844 128.070312 274.808594 126.90625 275.972656 C 125.738281 277.136719 124.519531 278.242188 123.25 279.289062 C 121.976562 280.332031 120.652344 281.3125 119.285156 282.226562 C 117.914062 283.140625 116.503906 283.988281 115.050781 284.765625 C 113.601562 285.539062 112.113281 286.242188 110.59375 286.875 C 109.070312 287.503906 107.523438 288.058594 105.945312 288.535156 C 104.371094 289.015625 102.773438 289.414062 101.160156 289.734375 C 99.542969 290.054688 97.917969 290.296875 96.277344 290.457031 C 94.640625 290.621094 92.996094 290.699219 91.351562 290.699219 C 89.703125 290.699219 88.058594 290.621094 86.421875 290.457031 C 84.78125 290.296875 83.15625 290.054688 81.539062 289.734375 C 79.925781 289.414062 78.328125 289.015625 76.753906 288.535156 C 75.179688 288.058594 73.628906 287.503906 72.109375 286.875 C 70.585938 286.242188 69.101562 285.539062 67.648438 284.765625 C 66.195312 283.988281 64.785156 283.140625 63.414062 282.226562 C 62.046875 281.3125 60.726562 280.332031 59.453125 279.289062 C 58.179688 278.242188 56.960938 277.136719 55.796875 275.972656 C 54.632812 274.808594 53.527344 273.589844 52.480469 272.316406 C 51.4375 271.042969 50.457031 269.722656 49.542969 268.355469 C 48.628906 266.984375 47.78125 265.574219 47.003906 264.121094 C 46.230469 262.667969 45.527344 261.183594 44.894531 259.660156 C 44.265625 258.140625 43.710938 256.589844 43.234375 255.015625 C 42.753906 253.441406 42.355469 251.84375 42.035156 250.230469 C 41.714844 248.613281 41.472656 246.988281 41.3125 245.347656 C 41.148438 243.710938 41.070312 242.066406 41.070312 240.417969 C 41.070312 238.773438 41.148438 237.128906 41.3125 235.492188 C 41.472656 233.851562 41.714844 232.226562 42.035156 230.609375 C 42.355469 228.996094 42.753906 227.398438 43.234375 225.824219 C 43.710938 224.246094 44.265625 222.699219 44.894531 221.175781 C 45.527344 219.65625 46.230469 218.167969 47.003906 216.71875 C 47.78125 215.265625 48.628906 213.855469 49.542969 212.484375 C 50.457031 211.117188 51.4375 209.792969 52.480469 208.519531 C 53.527344 207.25 54.632812 206.03125 55.796875 204.863281 C 56.960938 203.699219 58.179688 202.597656 59.453125 201.550781 C 60.726562 200.507812 62.046875 199.527344 63.414062 198.613281 C 64.785156 197.695312 66.195312 196.851562 67.648438 196.074219 C 69.101562 195.300781 70.585938 194.59375 72.109375 193.964844 C 73.628906 193.335938 75.179688 192.78125 76.753906 192.304688 C 78.328125 191.824219 79.925781 191.425781 81.539062 191.105469 C 83.15625 190.78125 84.78125 190.542969 86.421875 190.378906 C 88.058594 190.21875 89.703125 190.136719 91.351562 190.136719 C 92.996094 190.136719 94.640625 190.21875 96.277344 190.378906 C 97.917969 190.542969 99.542969 190.78125 101.160156 191.105469 C 102.773438 191.425781 104.371094 191.824219 105.945312 192.304688 C 107.523438 192.78125 109.070312 193.335938 110.59375 193.964844 C 112.113281 194.59375 113.601562 195.300781 115.050781 196.074219 C 116.503906 196.851562 117.914062 197.695312 119.285156 198.613281 C 120.652344 199.527344 121.976562 200.507812 123.25 201.550781 C 124.519531 202.597656 125.738281 203.699219 126.90625 204.863281 C 128.070312 206.03125 129.171875 207.25 130.21875 208.519531 C 131.261719 209.792969 132.242188 211.117188 133.15625 212.484375 C 134.074219 213.855469 134.917969 215.265625 135.695312 216.71875 C 136.46875 218.167969 137.175781 219.65625 137.804688 221.175781 C 138.433594 222.699219 138.988281 224.246094 139.464844 225.824219 C 139.945312 227.398438 140.34375 228.996094 140.664062 230.609375 C 140.988281 232.226562 141.226562 233.851562 141.390625 235.492188 C 141.550781 237.128906 141.632812 238.773438 141.632812 240.417969 Z M 141.632812 240.417969"/><g clip-path="url(#a)"><path fill="#FFF" d="M 91.40625 294.269531 C 88.867188 294.269531 86.289062 294.085938 83.753906 293.726562 C 54.367188 289.539062 33.855469 262.222656 38.039062 232.832031 C 41.792969 206.457031 64.683594 186.566406 91.28125 186.566406 C 93.824219 186.566406 96.402344 186.753906 98.9375 187.109375 C 128.332031 191.296875 148.839844 218.613281 144.65625 248.007812 C 140.898438 274.382812 118.007812 294.269531 91.40625 294.269531 Z M 91.28125 193.695312 C 68.210938 193.695312 48.355469 210.953125 45.097656 233.832031 C 41.46875 259.335938 59.261719 283.039062 84.757812 286.667969 C 86.960938 286.984375 89.199219 287.136719 91.40625 287.136719 C 114.484375 287.136719 134.34375 269.882812 137.601562 247.003906 C 141.230469 221.496094 123.4375 197.796875 97.933594 194.164062 C 95.730469 193.855469 93.492188 193.695312 91.28125 193.695312 Z M 91.28125 193.695312"/></g><g clip-path="url(#b)"><path fill="#F93" d="M 183.535156 157.199219 L 177.425781 160.304688 C 145.480469 176.542969 110.03125 214.152344 90.648438 245.960938 C 88.753906 242.421875 88.195312 241.257812 86.417969 237.363281 C 78.871094 223.800781 68.636719 211.675781 63.636719 207.027344 L 54.558594 209.511719 L 54.769531 210.058594 C 59.863281 217.335938 68.417969 233.136719 80 267.003906 C 80.785156 268.492188 81.632812 269.980469 82.640625 271.386719 C 85.289062 275.085938 88.355469 276.191406 90.460938 276.464844 C 90.464844 276.464844 90.464844 276.464844 90.464844 276.464844 C 96.46875 277.25 100.621094 272.972656 103.78125 267.742188 C 127.144531 211.363281 169.609375 175.984375 187.5 164.300781 Z M 183.535156 157.199219"/></g><path fill="#F93" d="M 151.886719 211.046875 L 169.886719 211.046875 L 169.886719 280.015625 L 151.886719 280.015625 L 151.886719 211.046875"/><path fill="#F93" d="M 188.757812 211.148438 L 188.757812 238.894531 L 161.007812 238.894531 L 188.757812 211.148438"/><path fill="#F93" d="M 161.078125 247.78125 L 188.828125 247.78125 L 188.828125 280.023438 L 161.078125 247.78125"/><path fill="#F93" d="M 160.964844 233.511719 L 205.957031 233.511719 L 205.957031 252.261719 L 160.964844 252.261719 L 160.964844 233.511719"/><path fill="#F93" d="M 205.410156 254.472656 L 205.410156 231.222656 L 228.660156 231.222656 L 205.410156 254.472656"/><path fill="#F93" d="M 229.816406 257.671875 L 205.816406 257.671875 L 205.816406 233.675781 L 229.816406 257.671875"/><path fill="#F93" d="M 188.792969 229.382812 L 212.042969 229.382812 L 212.042969 261.628906 L 188.792969 261.628906 L 188.792969 229.382812"/><path fill="#F93" d="M 187.5 247.496094 L 207.75 247.496094 L 207.75 263.996094 L 187.5 263.996094 L 187.5 247.496094"/><path fill="#F93" d="M 187.503906 211.191406 L 227.246094 211.191406 L 227.246094 233.691406 L 187.503906 233.691406 L 187.503906 211.191406"/><path fill="#F93" d="M 188.839844 255.929688 L 228.585938 255.929688 L 228.585938 279.929688 L 188.839844 279.929688 L 188.839844 255.929688"/><path fill="#F93" d="M 95.199219 176.101562 C 85.464844 176.101562 77.574219 183.992188 77.574219 193.726562 C 77.574219 203.460938 85.464844 211.351562 95.199219 211.351562 C 104.933594 211.351562 112.824219 203.460938 112.824219 193.726562 C 112.824219 183.992188 104.933594 176.101562 95.199219 176.101562"/></svg>